<svg width="16" height="17" viewBox="0 0 16 17" fill="none" xmlns="http://www.w3.org/2000/svg">
<path d="M12.3122 15.5C12.2069 15.5004 12.1042 15.4676 12.0187 15.4062L7.99966 12.4925L3.9806 15.4062C3.89474 15.4685 3.79129 15.5019 3.68522 15.5015C3.57915 15.5011 3.47595 15.467 3.39054 15.4041C3.30513 15.3412 3.24193 15.2528 3.21009 15.1516C3.17825 15.0504 3.17942 14.9417 3.21341 14.8412L4.78091 10.1984L0.718413 7.41249C0.630416 7.35221 0.564002 7.26537 0.528872 7.16466C0.493743 7.06395 0.491741 6.95464 0.523158 6.85271C0.554575 6.75078 0.617764 6.66157 0.703494 6.59811C0.789224 6.53465 0.893001 6.50027 0.999663 6.49999H6.01154L7.52404 1.8453C7.55662 1.74481 7.6202 1.65722 7.70564 1.5951C7.79109 1.53297 7.89402 1.49951 7.99966 1.49951C8.10531 1.49951 8.20823 1.53297 8.29368 1.5951C8.37913 1.65722 8.44271 1.74481 8.47529 1.8453L9.98779 6.50155H14.9997C15.1065 6.5015 15.2105 6.53564 15.2964 6.59898C15.3824 6.66232 15.4459 6.75152 15.4775 6.85353C15.5091 6.95554 15.5072 7.06499 15.4721 7.16586C15.437 7.26672 15.3706 7.3537 15.2825 7.41405L11.2184 10.1984L12.785 14.84C12.8104 14.9151 12.8175 14.9952 12.8058 15.0737C12.7941 15.1521 12.7639 15.2267 12.7177 15.2912C12.6715 15.3557 12.6107 15.4082 12.5401 15.4445C12.4696 15.4808 12.3915 15.4998 12.3122 15.5Z" fill="#FF8682"/>
</svg>
